<svg xmlns="http://www.w3.org/2000/svg" width="1600" height="900" viewBox="0 0 1600 900">
  <defs>
    <linearGradient id="bg" x1="0" y1="0" x2="1" y2="1">
      <stop offset="0" stop-color="#dcfce7"/>
      <stop offset="1" stop-color="#ecfeff"/>
    </linearGradient>
    <linearGradient id="wave" x1="0" y1="0" x2="1" y2="0">
      <stop offset="0" stop-color="#22c55e" stop-opacity="0.35"/>
      <stop offset="1" stop-color="#06b6d4" stop-opacity="0.25"/>
    </linearGradient>
  </defs>
  <rect width="1600" height="900" fill="url(#bg)"/>
  <path d="M0 640 C 280 560, 420 720, 720 650 C 980 590, 1180 520, 1600 620 L1600 900 L0 900 Z" fill="url(#wave)"/>
  <path d="M0 720 C 320 640, 520 820, 860 740 C 1120 680, 1320 640, 1600 710 L1600 900 L0 900 Z" fill="#16a34a" opacity="0.12"/>
  <circle cx="240" cy="190" r="90" fill="#22c55e" opacity="0.10"/>
  <circle cx="1340" cy="220" r="130" fill="#06b6d4" opacity="0.10"/>
  <circle cx="1120" cy="120" r="60" fill="#16a34a" opacity="0.12"/>
  <path d="M350 280c0 0 70-90 170-40 100 50 140-20 200-60 60-40 140 10 170 40 0 0-60-10-110 30-50 40-140 70-230 30-90-40-120-10-200 0z" fill="#0ea5e9" opacity="0.10"/>
</svg>
