<svg xmlns="http://www.w3.org/2000/svg" viewBox="0 0 128 128">
  <defs>
    <linearGradient id="g" x1="0" y1="0" x2="1" y2="1">
      <stop offset="0" stop-color="#16a34a"/>
      <stop offset="1" stop-color="#34d399"/>
    </linearGradient>
  </defs>
  <rect width="128" height="128" rx="28" fill="url(#g)"/>
  <path d="M64 22c-16.6 0-30 13.4-30 30 0 24 30 54 30 54s30-30 30-54c0-16.6-13.4-30-30-30zm0 42a12 12 0 1 1 0-24 12 12 0 0 1 0 24z" fill="#ffffff" opacity="0.95"/>
  <path d="M79 69l20-7-14 17-3 14-6-5-10 6 4-12-9-8 18-5z" fill="#0b3d1f" opacity="0.9"/>
</svg>
